<svg width="238" height="75" viewBox="0 0 238 75" fill="none" xmlns="http://www.w3.org/2000/svg">
<path fill-rule="evenodd" clip-rule="evenodd" d="M13.4666 0H224.386C229.073 0 230.769 0.524669 232.483 1.49905C234.175 2.45769 235.558 3.93986 236.453 5.75262C237.362 7.58896 237.852 9.40656 237.852 14.4096V60.543C237.852 65.5461 237.362 67.3637 236.453 69.2C235.558 71.0128 234.175 72.495 232.483 73.4536C230.769 74.428 229.073 74.9527 224.403 74.9527H13.4491C8.77954 74.9527 7.0831 74.428 5.36916 73.4536C3.67724 72.495 2.29387 71.0128 1.39913 69.2C0.489696 67.3637 0 65.5461 0 60.543V14.4096C0 9.40656 0.489696 7.58896 1.39913 5.75262C2.29387 3.93986 3.67724 2.45769 5.36916 1.49905C7.0831 0.524669 8.77954 0 13.4491 0H13.4666Z" fill="black"/>
<path fill-rule="evenodd" clip-rule="evenodd" d="M27.5624 55.7834L27.7723 55.8396C27.7013 55.8256 27.6312 55.8068 27.5624 55.7834ZM57.4688 34.4219C58.2558 34.8904 58.7455 35.5087 58.9029 36.1458L58.9379 36.3894C58.8679 37.1015 58.3608 37.8135 57.4513 38.3569L29.8185 55.1651C29.2588 55.5211 28.7167 55.671 28.2445 55.671C27.7548 55.671 27.335 55.5024 26.9853 55.1838L26.8803 55.0714C26.4219 54.479 26.1906 53.7221 26.2332 52.954V19.8249C26.2332 18.813 26.5131 18.0448 26.9853 17.5763C27.335 17.2578 27.7548 17.0891 28.2445 17.0891C28.7167 17.0891 29.2588 17.2578 29.8185 17.595L57.4513 34.4219H57.4688ZM28.227 16.8643H28.4718H28.227ZM188.777 55.0152H192.03V31.5925H188.777V55.0152ZM218.159 40.0246L214.416 50.1807H214.311L210.429 40.0246H206.913L212.737 54.2282L209.414 62.1169H212.825L221.797 40.0246H218.159ZM199.655 52.3543C198.589 52.3543 197.102 51.7922 197.102 50.3681C197.102 48.5505 198.956 47.8572 200.547 47.8572C201.999 47.8572 202.664 48.1945 203.538 48.6442C203.419 49.6613 202.961 50.5979 202.247 51.2802C201.533 51.9624 200.612 52.3441 199.655 52.3543ZM200.058 39.5187C197.679 39.5187 195.248 40.643 194.234 43.0977L197.119 44.4094C197.749 43.0977 198.903 42.6854 200.093 42.6854C201.789 42.6854 203.503 43.7535 203.538 45.6836V45.9272C202.488 45.3313 201.316 45.0223 200.128 45.0277C197.015 45.0277 193.832 46.8641 193.832 50.2931C193.832 53.4412 196.402 55.4649 199.253 55.4649C201.457 55.4649 202.664 54.3968 203.433 53.1601H203.538V54.9777H206.686V45.9834C206.686 41.8422 203.783 39.5187 200.04 39.5187H200.058ZM179.875 42.8916H175.241V34.8342H179.875C182.324 34.8342 183.723 37.0078 183.723 38.8629C183.723 40.6805 182.324 42.8728 179.875 42.8728V42.8916ZM179.805 31.5925H171.97V55.0152H175.241V46.1333H179.788C183.408 46.1333 186.958 43.3225 186.958 38.8629C186.958 34.4032 183.408 31.5925 179.788 31.5925H179.805ZM137.149 52.3543C134.911 52.3543 133.022 50.3306 133.022 47.5574C133.022 44.7466 134.911 42.6854 137.149 42.6854C139.388 42.6854 141.137 44.7466 141.137 47.5574C141.137 50.3306 139.388 52.3543 137.149 52.3543ZM140.909 41.3363H140.787C140.29 40.7582 139.683 40.3003 139.007 39.9933C138.332 39.6864 137.603 39.5373 136.869 39.5562C134.944 39.6342 133.123 40.5138 131.794 42.008C130.465 43.5023 129.732 45.4932 129.751 47.5574C129.737 49.6146 130.473 51.5967 131.802 53.0809C133.132 54.5651 134.95 55.434 136.869 55.5024C137.606 55.5227 138.339 55.3706 139.015 55.0567C139.692 54.7428 140.297 54.2746 140.787 53.6847H140.909V54.8278C140.909 57.8821 139.388 59.5123 136.939 59.5123C136.121 59.4956 135.326 59.2173 134.656 58.7132C133.986 58.2091 133.472 57.5021 133.179 56.6829L130.346 57.9383C130.88 59.3404 131.793 60.5392 132.968 61.3807C134.143 62.2222 135.526 62.6678 136.939 62.6603C140.77 62.6603 144.005 60.2244 144.005 54.3593V40.0434H140.909V41.355V41.3363ZM146.261 55.0152H149.532V31.5925H146.261V55.0152ZM154.341 47.2763C154.306 46.6967 154.378 46.1154 154.555 45.5663C154.732 45.0173 155.01 44.5116 155.371 44.0788C155.733 43.646 156.171 43.2949 156.661 43.046C157.151 42.7971 157.682 42.6554 158.224 42.6292C159.535 42.6292 160.637 43.3225 160.987 44.3157L154.341 47.295V47.2763ZM164.485 44.6342C163.873 42.8541 161.984 39.5749 158.119 39.5749C154.289 39.5749 151.106 42.7791 151.106 47.5199C151.106 51.9983 154.254 55.5024 158.486 55.5024C161.896 55.5024 163.873 53.2538 164.695 51.9608L162.159 50.162C161.777 50.8373 161.237 51.3945 160.593 51.7788C159.949 52.1632 159.223 52.3615 158.486 52.3543C156.825 52.3543 155.635 51.5486 154.883 49.9371L164.835 45.5336L164.485 44.6342ZM85.259 42.0109V45.3837H92.7968C92.6881 46.9677 92.0843 48.4662 91.0829 49.6373C90.325 50.4646 89.4135 51.1123 88.4073 51.5383C87.401 51.9644 86.3225 52.1594 85.2415 52.1107C84.1455 52.1084 83.0608 51.8731 82.0501 51.4187C81.0395 50.9642 80.123 50.2995 79.3537 49.463C78.5843 48.6266 77.9775 47.635 77.5682 46.5456C77.1589 45.4562 76.9553 44.2907 76.9692 43.1164C76.9486 41.3729 77.4075 39.6614 78.2886 38.1953C79.1697 36.7293 80.4341 35.5735 81.9242 34.8722C83.4142 34.1709 85.064 33.955 86.6678 34.2515C88.2716 34.5479 89.7584 35.3436 90.943 36.5393L93.1641 34.1596C92.1217 33.055 90.8841 32.1844 89.5237 31.5988C88.1633 31.0132 86.7075 30.7244 85.2415 30.7492C82.1639 30.7489 79.2096 32.0458 77.0171 34.3599C74.8245 36.674 73.5698 39.8193 73.5238 43.1164C73.5698 46.4135 74.8245 49.5589 77.0171 51.873C79.2096 54.187 82.1639 55.484 85.2415 55.4836C88.6869 55.4836 91.2753 54.2844 93.304 52.0171C95.1427 49.8643 96.122 47.0261 96.0323 44.1096C96.0323 43.3225 95.9799 42.6105 95.8574 42.0109H85.2415H85.259ZM104.619 52.3543C102.363 52.3543 100.422 50.3681 100.422 47.5199C100.422 44.653 102.363 42.7042 104.619 42.7042C106.893 42.7042 108.817 44.653 108.817 47.5199C108.817 50.3681 106.893 52.3543 104.619 52.3543ZM104.619 39.5562C103.637 39.5386 102.662 39.7322 101.75 40.1257C100.839 40.5192 100.011 41.1046 99.3147 41.8471C98.6184 42.5896 98.0682 43.4743 97.6967 44.4487C97.3251 45.4231 97.1398 46.4674 97.1516 47.5199C97.1374 48.574 97.321 49.6203 97.6915 50.5969C98.062 51.5735 98.6118 52.4604 99.3084 53.2049C100.005 53.9494 100.834 54.5365 101.746 54.9311C102.659 55.3258 103.636 55.52 104.619 55.5024C105.603 55.52 106.58 55.3258 107.493 54.9311C108.405 54.5365 109.234 53.9494 109.931 53.2049C110.627 52.4604 111.177 51.5735 111.547 50.5969C111.918 49.6203 112.102 48.574 112.087 47.5199C112.099 46.4674 111.914 45.4231 111.542 44.4487C111.171 43.4743 110.621 42.5896 109.924 41.8471C109.228 41.1046 108.4 40.5192 107.489 40.1257C106.577 39.7322 105.602 39.5386 104.619 39.5562ZM120.919 52.3543C118.646 52.3543 116.722 50.3681 116.722 47.5199C116.722 44.653 118.646 42.7042 120.919 42.7042C123.158 42.7042 125.117 44.653 125.117 47.5199C125.117 50.3681 123.158 52.3543 120.919 52.3543ZM120.919 39.5562C119.937 39.5386 118.961 39.7322 118.05 40.1257C117.139 40.5192 116.311 41.1046 115.615 41.8471C114.918 42.5896 114.368 43.4743 113.997 44.4487C113.625 45.4231 113.44 46.4674 113.451 47.5199C113.437 48.574 113.621 49.6203 113.991 50.5969C114.362 51.5735 114.912 52.4604 115.608 53.2049C116.305 53.9494 117.134 54.5365 118.046 54.9311C118.959 55.3258 119.936 55.52 120.919 55.5024C121.903 55.52 122.88 55.3258 123.793 54.9311C124.705 54.5365 125.534 53.9494 126.23 53.2049C126.927 52.4604 127.477 51.5735 127.847 50.5969C128.218 49.6203 128.401 48.574 128.387 47.5199C128.399 46.4674 128.214 45.4231 127.842 44.4487C127.471 43.4743 126.92 42.5896 126.224 41.8471C125.528 41.1046 124.7 40.5192 123.788 40.1257C122.877 39.7322 121.902 39.5386 120.919 39.5562Z" fill="white"/>
<path fill-rule="evenodd" clip-rule="evenodd" d="M83.1607 18.982C83.1607 20.3874 82.7759 21.5117 81.9889 22.3549C81.1145 23.348 79.9427 23.854 78.5261 23.854C77.1619 23.854 75.9901 23.348 75.0282 22.3362C74.566 21.8481 74.2019 21.2638 73.9582 20.6193C73.7146 19.9748 73.5967 19.2837 73.6116 18.5885C73.6116 17.0895 74.0838 15.8153 75.0457 14.8034C75.9901 13.7916 77.1444 13.2856 78.5261 13.2856C79.1907 13.2856 79.8377 13.4355 80.4499 13.7166C81.0795 13.9977 81.5692 14.3725 81.9364 14.8409L81.097 15.7216C80.7815 15.3258 80.3861 15.0121 79.9406 14.8043C79.4952 14.5965 79.0114 14.5001 78.5261 14.5224C77.5292 14.5224 76.6722 14.8971 75.9377 15.6467C75.2206 16.3962 74.8533 17.3706 74.8533 18.5698C74.8533 19.769 75.2031 20.7434 75.9377 21.493C76.6722 22.2425 77.5117 22.6173 78.5261 22.6173C79.5754 22.6173 80.4499 22.2425 81.1494 21.493C81.6042 20.987 81.884 20.3125 81.9539 19.4318H78.5261V18.2138H83.0907C83.1432 18.4761 83.1607 18.7385 83.1607 18.9633" fill="white"/>
<path fill-rule="evenodd" clip-rule="evenodd" d="M83.1604 18.9817H83.003C83.003 20.3684 82.6182 21.4177 81.8837 22.2422C81.0092 23.1978 79.9074 23.685 78.5258 23.685C77.1966 23.685 76.0773 23.1978 75.1504 22.2234C74.6969 21.7498 74.34 21.1805 74.1022 20.5516C73.8644 19.9227 73.7508 19.2478 73.7687 18.5695C73.7687 17.1079 74.2234 15.9087 75.1678 14.9156C75.6054 14.4401 76.1288 14.0652 76.7062 13.8139C77.2836 13.5626 77.9027 13.4402 78.5258 13.454C79.1729 13.454 79.8025 13.5852 80.3971 13.8662C80.9917 14.1473 81.4464 14.5033 81.8137 14.953L81.9361 14.8406L81.8137 14.7282L80.9917 15.6089L81.0967 15.7213L81.2191 15.6276C80.572 14.7844 79.6451 14.3534 78.5258 14.3534C77.4764 14.3534 76.5845 14.7469 75.8324 15.5339C75.0804 16.3022 74.6956 17.3328 74.6956 18.5695C74.6956 19.8062 75.0804 20.8181 75.8324 21.6051C76.5845 22.3921 77.4939 22.7856 78.5258 22.7856C79.6101 22.7856 80.537 22.3921 81.2716 21.6051C81.7613 21.0804 82.0411 20.3496 82.111 19.4502V19.2628H78.7007V18.3821H83.1079V18.2135L82.9505 18.251C83.003 18.4946 83.0205 18.7382 83.0205 18.9817H83.3353C83.3353 18.7194 83.3178 18.4571 83.2653 18.1947L83.2478 18.0448H78.3509V19.6001H81.9361V19.4315H81.7613C81.7088 20.2747 81.4465 20.9118 81.0267 21.3615C80.3446 22.0923 79.5226 22.4483 78.5083 22.4483C77.5464 22.4483 76.7244 22.0735 76.0248 21.3615C75.3253 20.6494 74.9755 19.7313 74.9755 18.5695C74.9755 17.4077 75.3253 16.5083 76.0248 15.7588C76.7244 15.0467 77.5464 14.6907 78.5083 14.6907C79.5576 14.6907 80.3621 15.0655 80.9568 15.8337L81.0792 15.9836L82.0236 14.953L82.1285 14.8593L82.0411 14.7282C81.6221 14.2102 81.0947 13.8057 80.502 13.5477C79.877 13.2632 79.2049 13.1167 78.5258 13.1167C77.1266 13.1167 75.9024 13.6414 74.9405 14.6907C74.4593 15.1908 74.079 15.7915 73.8233 16.4555C73.5676 17.1194 73.4419 17.8326 73.4539 18.5508C73.4539 20.0873 73.9436 21.399 74.9405 22.4483C75.4082 22.9548 75.9673 23.3539 76.5837 23.6213C77.2001 23.8887 77.8609 24.0187 78.5258 24.0036C79.9774 24.0036 81.1841 23.4789 82.0935 22.4483L81.9886 22.3359L82.0935 22.467C82.9155 21.5864 83.3178 20.4058 83.3178 18.963H83.1604V18.9817ZM90.4184 14.7469H86.1161V17.9699H89.9986V19.1691H86.1161V22.3921H90.4184V23.6288H84.9093V13.5102H90.4184V14.7469Z" fill="white"/>
<path fill-rule="evenodd" clip-rule="evenodd" d="M90.4185 14.7472V14.5785H85.9587V18.1388H89.8413V19.0007H85.9587V22.561H90.2611V23.4604H85.0668V13.6791H90.2611V14.7472H90.4185V14.5785V14.7659H90.5759V13.3418H84.752V23.7977H90.5759V22.2237H86.2735V19.338H90.1561V17.8015H86.2735V14.9158H90.5759V14.7472H90.401H90.4185ZM95.5253 23.629H94.3185V14.7472H91.6952V13.5104H98.1662V14.7472H95.5428V23.629" fill="white"/>
<path fill-rule="evenodd" clip-rule="evenodd" d="M95.5255 23.629V23.4604H94.4761V14.5785H91.8528V13.6791H98.0089V14.5785H95.3856V23.629H95.5255V23.4604V23.6478H95.7004V14.9158H98.3237V13.3418H91.5205V14.9158H94.1613V23.7977H95.6829V23.629H95.5255ZM102.871 23.629H104.095V13.5104H102.871V23.629Z" fill="white"/>
<path fill-rule="evenodd" clip-rule="evenodd" d="M102.871 23.629H103.028V13.6978H103.92V23.4604H102.871V23.6478H103.028H102.853V23.7977H104.252V13.3418H102.713V23.7977H102.871V23.629ZM109.464 23.629H108.24V14.7472H105.617V13.5104H112.088V14.7472H109.464V23.629Z" fill="white"/>
<path fill-rule="evenodd" clip-rule="evenodd" d="M109.464 23.6293V23.4606H108.414V14.5787H105.774V13.6793H111.93V14.5787H109.306V23.6293H109.464V23.4606V23.648H109.621V14.916H112.245V13.342H105.459V14.916H108.082V23.7979H109.621V23.6293H109.446H109.464ZM118.348 21.4744C119.048 22.2239 119.922 22.5987 120.919 22.5987C121.934 22.5987 122.791 22.2239 123.49 21.4744C124.19 20.7248 124.539 19.7505 124.539 18.57C124.539 17.3894 124.19 16.4338 123.49 15.6655C122.791 14.916 121.934 14.5412 120.919 14.5412C119.905 14.5412 119.048 14.916 118.348 15.6655C117.649 16.4151 117.299 17.3894 117.299 18.57C117.299 19.7505 117.649 20.7248 118.348 21.4744ZM124.382 22.3176C123.455 23.3482 122.301 23.8541 120.919 23.8541C119.538 23.8541 118.383 23.3482 117.456 22.3176C117.001 21.8253 116.642 21.2399 116.401 20.5961C116.161 19.9522 116.044 19.2632 116.057 18.57C116.043 17.8782 116.159 17.1905 116.397 16.5475C116.636 15.9045 116.992 15.3193 117.446 14.8266C117.899 14.3339 118.44 13.9436 119.037 13.679C119.633 13.4143 120.273 13.2806 120.919 13.2858C121.565 13.2806 122.205 13.4143 122.802 13.679C123.398 13.9436 123.94 14.3339 124.393 14.8266C124.846 15.3193 125.203 15.9045 125.441 16.5475C125.68 17.1905 125.795 17.8782 125.781 18.57C125.781 20.0503 125.309 21.3057 124.382 22.3176Z" fill="white"/>
<path fill-rule="evenodd" clip-rule="evenodd" d="M118.349 21.4741L118.244 21.5865C118.978 22.3735 119.87 22.7857 120.919 22.7857C121.969 22.7857 122.878 22.3735 123.595 21.5865C124.33 20.7995 124.697 19.7876 124.697 18.5884C124.697 17.3517 124.33 16.3398 123.595 15.5528C123.251 15.1661 122.835 14.8599 122.374 14.6535C121.914 14.4471 121.419 14.345 120.919 14.3536C119.87 14.3536 118.978 14.7658 118.244 15.5528C117.879 15.9499 117.594 16.4219 117.405 16.9404C117.215 17.4589 117.126 18.0131 117.142 18.5696C117.142 19.7876 117.509 20.8182 118.244 21.5865L118.471 21.3616C118.133 20.9947 117.869 20.5578 117.695 20.0777C117.521 19.5977 117.439 19.0845 117.457 18.5696C117.457 17.4454 117.806 16.5084 118.471 15.7777C118.788 15.4262 119.168 15.1484 119.59 14.9614C120.011 14.7744 120.464 14.6823 120.919 14.6908C121.899 14.6908 122.703 15.0656 123.368 15.7777C124.05 16.5272 124.382 17.4266 124.382 18.5884C124.382 19.7127 124.033 20.6308 123.368 21.3616C122.703 22.0924 121.899 22.4484 120.919 22.4484C120.464 22.457 120.011 22.3649 119.59 22.1779C119.168 21.9909 118.788 21.7131 118.471 21.3616L118.349 21.4741ZM124.382 22.3173L124.277 22.2049C123.368 23.198 122.266 23.6852 120.919 23.7039C120.296 23.7066 119.678 23.5754 119.102 23.3181C118.527 23.0608 118.005 22.6825 117.568 22.2057C117.132 21.7289 116.788 21.1632 116.559 20.5419C116.329 19.9206 116.218 19.2564 116.232 18.5884C116.216 17.9188 116.325 17.2526 116.554 16.6291C116.782 16.0056 117.125 15.4377 117.562 14.9588C117.999 14.48 118.522 14.1001 119.098 13.8416C119.675 13.5832 120.294 13.4514 120.919 13.4541C122.266 13.4541 123.368 13.9413 124.26 14.9532C125.169 15.9463 125.624 17.1455 125.624 18.5696C125.624 20.0125 125.169 21.2117 124.277 22.2049L124.505 22.4484C125.449 21.3991 125.939 20.0874 125.939 18.5696C125.953 17.8558 125.833 17.1461 125.587 16.4827C125.34 15.8192 124.972 15.2155 124.504 14.7071C124.036 14.1987 123.478 13.796 122.862 13.5229C122.247 13.2497 121.586 13.1117 120.919 13.1168C120.254 13.1142 119.596 13.2541 118.982 13.5284C118.368 13.8026 117.812 14.2057 117.346 14.7138C116.88 15.222 116.513 15.8249 116.268 16.4871C116.023 17.1493 115.904 17.8574 115.918 18.5696C115.918 20.0874 116.39 21.3804 117.352 22.4484C118.296 23.4978 119.503 24.0225 120.919 24.0225C122.336 24.0225 123.543 23.4978 124.505 22.4484L124.382 22.3173ZM127.495 23.629V13.5103H128.964L133.547 21.3804H133.599L133.547 19.4316V13.5103H134.771V23.629H133.494L128.685 15.3842H128.632L128.685 17.3329V23.629H127.478" fill="white"/>
<path fill-rule="evenodd" clip-rule="evenodd" d="M127.495 23.629H127.635V13.6978H128.859L133.459 21.5679H133.756L133.704 19.4317V13.6791H134.596V23.4604H133.581L128.772 15.2156H128.475L128.527 17.333V23.4604H127.478V23.6478H127.653H127.478V23.7977H128.842V17.333L128.789 15.3655H128.632V15.5529H128.684V15.3655L128.562 15.4592L133.406 23.7977H134.911V13.3418H133.389V19.4317L133.441 21.3805H133.599V21.2118H133.546V21.3992L133.686 21.2868L129.052 13.3418H127.32V23.7977H127.495V23.629Z" fill="white"/>
</svg>
