<svg width="238" height="75" viewBox="0 0 238 75" fill="none" xmlns="http://www.w3.org/2000/svg">
<path fill-rule="evenodd" clip-rule="evenodd" d="M13.4626 0H224.318C229.004 0 230.7 0.525 232.413 1.5C234.105 2.45925 235.487 3.94235 236.382 5.75625C237.291 7.59375 237.781 9.4125 237.781 14.4187V60.5813C237.781 65.5875 237.291 67.4062 236.382 69.2438C235.487 71.0576 234.105 72.5408 232.413 73.5C230.7 74.475 229.004 75 224.336 75H13.4451C8.7769 75 7.08097 74.475 5.36755 73.5C3.67614 72.5408 2.29318 71.0576 1.39871 69.2438C0.489548 67.4062 0 65.5875 0 60.5813V14.4187C0 9.4125 0.489548 7.59375 1.39871 5.75625C2.29318 3.94235 3.67614 2.45925 5.36755 1.5C7.08097 0.525 8.7769 0 13.4451 0H13.4626Z" fill="black"/>
<path d="M53.0634 37.5564C53.0984 34.0502 54.8118 30.8252 57.5918 28.9877C56.7208 27.6556 55.5718 26.5601 54.2361 25.7886C52.9005 25.0171 51.4153 24.5909 49.8989 24.5439C46.6818 24.1689 43.5522 26.6064 41.9087 26.6064C40.2303 26.6064 37.6951 24.5814 34.9676 24.6377C33.203 24.6994 31.4834 25.2498 29.976 26.2355C28.4686 27.2213 27.2248 28.6086 26.3656 30.2627C22.6415 37.1814 25.4214 47.3252 28.9881 52.9127C30.7715 55.6314 32.8346 58.6877 35.5796 58.5752C38.2371 58.4627 39.2512 56.7564 42.4507 56.7564C45.6503 56.7564 46.5769 58.5752 49.3569 58.5189C52.2242 58.4627 54.0251 55.7627 55.756 53.0064C57.0323 51.0564 58.0289 48.9002 58.6758 46.6314C57.0128 45.8767 55.5939 44.6137 54.5958 42.9999C53.5978 41.3861 53.0648 39.4929 53.0634 37.5564ZM47.8008 20.8689C49.3642 18.8606 50.1357 16.2776 49.9513 13.6689C47.556 13.9502 45.3531 15.1689 43.7795 17.1002C43.005 18.0444 42.4117 19.1432 42.0337 20.3336C41.6557 21.5241 41.5003 22.7828 41.5765 24.0377C42.7702 24.0505 43.9509 23.7718 45.0293 23.2228C46.1077 22.6739 47.0555 21.8689 47.8008 20.8689Z" fill="white"/>
<path d="M89.6925 49.9503H81.4226L79.4294 56.2503H75.9327L83.7654 32.9628H87.4196L95.2523 56.2503H91.6856L89.6925 49.9503ZM82.2793 47.0441H88.8358L85.6012 36.8253H85.5138L82.2793 47.0441ZM112.177 47.7566C112.177 53.0253 109.554 56.4191 105.568 56.4191C104.562 56.4766 103.561 56.2293 102.68 55.7054C101.798 55.1815 101.073 54.4022 100.585 53.4566H100.515V61.8566H97.263V39.2628H100.41V42.0753H100.463C100.972 41.1311 101.711 40.3532 102.602 39.8248C103.492 39.2964 104.499 39.0373 105.515 39.0753C109.537 39.0753 112.177 42.4878 112.177 47.7566ZM108.837 47.7566C108.837 44.3253 107.176 42.0566 104.641 42.0566C102.176 42.0566 100.498 44.3628 100.498 47.7566C100.498 51.1691 102.176 53.4753 104.659 53.4753C107.176 53.4753 108.837 51.2253 108.837 47.7566ZM129.591 47.7566C129.591 53.0253 126.968 56.4191 122.999 56.4191C121.993 56.4766 120.992 56.2293 120.111 55.7054C119.23 55.1815 118.504 54.4022 118.016 53.4566H117.929V61.8566H114.694V39.2628H117.842V42.0753H117.894C118.402 41.134 119.139 40.358 120.025 39.8297C120.912 39.3015 121.916 39.0408 122.929 39.0753C126.951 39.0753 129.591 42.4878 129.591 47.7566ZM126.269 47.7566C126.269 44.3253 124.608 42.0566 122.073 42.0566C119.59 42.0566 117.929 44.3628 117.929 47.7566C117.929 51.1691 119.59 53.4753 122.073 53.4753C124.608 53.4753 126.269 51.2253 126.269 47.7566ZM141.113 49.7628C141.357 52.0691 143.438 53.5878 146.305 53.5878C149.05 53.5878 151.026 52.0691 151.026 49.9878C151.026 48.1691 149.82 47.1003 147.005 46.3503L144.207 45.6191C140.203 44.5878 138.368 42.6003 138.368 39.3566C138.368 35.3253 141.62 32.5691 146.253 32.5691C150.851 32.5691 153.998 35.3253 154.103 39.3566H150.816C150.624 37.0316 148.823 35.6066 146.218 35.6066C143.595 35.6066 141.812 37.0316 141.812 39.1128C141.812 40.7441 142.948 41.7378 145.746 42.4691L148.141 43.0878C152.599 44.2128 154.435 46.1441 154.435 49.5378C154.435 53.9066 151.201 56.6253 146.06 56.6253C141.252 56.6253 138 53.9628 137.791 49.7628H141.113ZM161.464 35.2503V39.2628H164.471V42.0191H161.464V51.3941C161.464 52.8378 162.058 53.5128 163.387 53.5128C163.737 53.5128 164.086 53.4753 164.436 53.4378V56.1753C163.859 56.3066 163.247 56.3628 162.653 56.3441C159.436 56.3441 158.194 55.0316 158.194 51.7503V42.0191H155.886V39.2628H158.194V35.2503H161.464ZM166.202 47.7566C166.202 42.4128 169.139 39.0566 173.72 39.0566C178.301 39.0566 181.238 42.4316 181.238 47.7566C181.238 53.1191 178.318 56.4566 173.72 56.4566C169.122 56.4566 166.202 53.1191 166.202 47.7566ZM177.916 47.7566C177.916 44.1003 176.343 41.9441 173.72 41.9441C171.097 41.9441 169.524 44.1003 169.524 47.7566C169.524 51.4316 171.097 53.5691 173.72 53.5691C176.343 53.5691 177.916 51.4316 177.916 47.7566ZM183.913 39.2628H187.008V42.1503H187.078C187.515 40.2941 189.106 39.0191 190.889 39.0941C191.256 39.0941 191.641 39.1316 192.008 39.2253V42.4878C191.533 42.3271 191.037 42.2511 190.539 42.2628C190.066 42.2402 189.593 42.3284 189.154 42.5214C188.715 42.7143 188.32 43.0074 187.998 43.3803C187.675 43.7531 187.432 44.1968 187.285 44.6805C187.138 45.1643 187.091 45.6765 187.148 46.1816V56.2503H183.913V39.2628ZM206.974 51.2628C206.537 54.3378 203.74 56.4566 200.156 56.4566C195.557 56.4566 192.707 53.1378 192.707 47.8316C192.707 42.5066 195.575 39.0566 200.033 39.0566C204.404 39.0566 207.167 42.2816 207.167 47.4378V48.6191H195.977V48.8441C195.927 49.4688 196.001 50.0977 196.195 50.6892C196.389 51.2807 196.698 51.8213 197.101 52.2752C197.505 52.729 197.993 53.0858 198.535 53.3218C199.077 53.5578 199.659 53.6676 200.243 53.6441C201.817 53.7941 203.303 52.8378 203.897 51.2628H206.974ZM195.994 46.2003H203.915C203.944 45.6386 203.864 45.0764 203.681 44.5491C203.498 44.0218 203.216 43.5407 202.851 43.1358C202.487 42.731 202.049 42.4112 201.564 42.1965C201.079 41.9817 200.558 41.8767 200.033 41.8878C198.967 41.8878 197.944 42.3422 197.19 43.1509C196.436 43.9597 196.012 45.0566 196.012 46.2003H195.994Z" fill="white"/>
<path d="M81.8767 15.4312C82.5577 15.3809 83.2406 15.4931 83.8762 15.7599C84.5118 16.0267 85.0844 16.4413 85.5526 16.9739C86.0208 17.5065 86.3731 18.1439 86.584 18.8401C86.7949 19.5362 86.8591 20.2739 86.7722 21C86.7722 24.5625 84.9714 26.625 81.8767 26.625H78.1002V15.4312H81.8767ZM79.7262 25.0312H81.6844C82.1701 25.0613 82.656 24.9754 83.107 24.7797C83.558 24.584 83.9629 24.2834 84.2924 23.8995C84.6219 23.5156 84.8679 23.0581 85.0125 22.5599C85.1571 22.0617 85.1968 21.5353 85.1287 21.0187C85.1968 20.5021 85.1571 19.9757 85.0125 19.4775C84.8679 18.9793 84.6219 18.5218 84.2924 18.1379C83.9629 17.754 83.558 17.4534 83.107 17.2577C82.656 17.062 82.1701 16.9761 81.6844 17.0062H79.7262V25.0312ZM88.608 22.3875C88.5731 21.8412 88.6432 21.2931 88.8141 20.7772C88.985 20.2613 89.2529 19.7885 89.6014 19.3884C89.9498 18.9882 90.3712 18.6691 90.8395 18.4509C91.3077 18.2328 91.8128 18.1202 92.3233 18.1202C92.8339 18.1202 93.339 18.2328 93.8072 18.4509C94.2755 18.6691 94.6969 18.9882 95.0453 19.3884C95.3937 19.7885 95.6617 20.2613 95.8326 20.7772C96.0035 21.2931 96.0736 21.8412 96.0387 22.3875C96.0736 22.9337 96.0035 23.4818 95.8326 23.9977C95.6617 24.5136 95.3937 24.9864 95.0453 25.3865C94.6969 25.7867 94.2755 26.1058 93.8072 26.324C93.339 26.5421 92.8339 26.6547 92.3233 26.6547C91.8128 26.6547 91.3077 26.5421 90.8395 26.324C90.3712 26.1058 89.9498 25.7867 89.6014 25.3865C89.2529 24.9864 88.985 24.5136 88.8141 23.9977C88.6432 23.4818 88.5731 22.9337 88.608 22.3875ZM94.4301 22.3875C94.4301 20.5687 93.6783 19.5 92.3321 19.5C90.9683 19.5 90.2165 20.5687 90.2165 22.3875C90.2165 24.2437 90.9683 25.2937 92.3146 25.2937C93.6783 25.2937 94.4301 24.225 94.4301 22.3875ZM105.9 26.625H104.291L102.665 20.4H102.543L100.917 26.625H99.3431L97.1576 18.1875H98.7312L100.13 24.6187H100.252L101.878 18.1687H103.364L104.99 24.6187H105.113L106.511 18.1687H108.068L105.9 26.625ZM109.886 18.1875H111.389V19.5187H111.512C111.914 18.525 112.858 17.925 113.855 18.0187C114.238 17.986 114.622 18.0464 114.98 18.1953C115.338 18.3443 115.661 18.5779 115.923 18.8789C116.185 19.1798 116.38 19.5404 116.494 19.9336C116.609 20.3268 116.639 20.7426 116.582 21.15V26.625H115.009V21.5625C115.009 20.2125 114.484 19.5375 113.33 19.5375C113.069 19.5222 112.809 19.568 112.566 19.6716C112.323 19.7753 112.105 19.9343 111.925 20.1376C111.745 20.341 111.609 20.5838 111.526 20.8493C111.442 21.1147 111.414 21.3965 111.442 21.675V26.625H109.886V18.1875ZM119.065 14.8875H120.604V26.625H119.047L119.065 14.8875ZM122.771 22.3875C122.737 21.8412 122.807 21.2931 122.978 20.7772C123.148 20.2613 123.416 19.7885 123.765 19.3884C124.113 18.9882 124.535 18.6691 125.003 18.4509C125.471 18.2328 125.976 18.1202 126.487 18.1202C126.997 18.1202 127.502 18.2328 127.971 18.4509C128.439 18.6691 128.86 18.9882 129.209 19.3884C129.557 19.7885 129.825 20.2613 129.996 20.7772C130.167 21.2931 130.237 21.8412 130.202 22.3875C130.237 22.9337 130.167 23.4818 129.996 23.9977C129.825 24.5136 129.557 24.9864 129.209 25.3865C128.86 25.7867 128.439 26.1058 127.971 26.324C127.502 26.5421 126.997 26.6547 126.487 26.6547C125.976 26.6547 125.471 26.5421 125.003 26.324C124.535 26.1058 124.113 25.7867 123.765 25.3865C123.416 24.9864 123.148 24.5136 122.978 23.9977C122.807 23.4818 122.737 22.9337 122.771 22.3875ZM128.594 22.3875C128.594 20.5687 127.824 19.5 126.496 19.5C125.132 19.5 124.38 20.5687 124.38 22.3875C124.38 24.2437 125.132 25.2937 126.478 25.2937C127.824 25.2937 128.594 24.225 128.594 22.3875ZM131.828 24.225C131.828 22.725 132.877 21.8437 134.765 21.7125L136.898 21.5812V20.85C136.898 19.9687 136.339 19.4625 135.272 19.4625C134.398 19.4625 133.804 19.8 133.646 20.4H132.125C132.3 18.9375 133.559 18.0187 135.342 18.0187C137.318 18.0187 138.437 19.0687 138.437 20.85V26.625H136.933V25.425H136.811C136.304 26.3062 135.412 26.8125 134.451 26.7562C134.12 26.7929 133.786 26.7548 133.47 26.6444C133.153 26.534 132.862 26.3537 132.615 26.1152C132.368 25.8766 132.17 25.5851 132.035 25.2596C131.899 24.934 131.829 24.5815 131.828 24.225ZM136.898 23.5125V22.8L134.975 22.9312C133.891 23.0062 133.402 23.4187 133.402 24.15C133.402 24.9 134.014 25.35 134.853 25.35C135.101 25.3783 135.351 25.3529 135.589 25.2751C135.828 25.1973 136.049 25.0688 136.24 24.8973C136.431 24.7258 136.587 24.5148 136.701 24.2768C136.814 24.0389 136.881 23.7789 136.898 23.5125ZM140.483 22.3875C140.483 19.725 141.759 18.0375 143.752 18.0375C144.749 17.9812 145.693 18.5625 146.165 19.5187H146.27V14.8875H147.843V26.625H146.34V25.2937H146.217C145.71 26.2312 144.766 26.7937 143.752 26.7562C141.741 26.7562 140.483 25.0687 140.483 22.3875ZM142.091 22.3875C142.091 24.1875 142.878 25.2562 144.189 25.2562C145.501 25.2562 146.305 24.1687 146.305 22.4062C146.305 20.6437 145.483 19.5375 144.189 19.5375C142.878 19.5375 142.091 20.625 142.091 22.3875ZM154.26 22.3875C154.225 21.8412 154.295 21.2931 154.466 20.7772C154.637 20.2613 154.905 19.7885 155.253 19.3884C155.602 18.9882 156.023 18.6691 156.491 18.4509C156.96 18.2328 157.465 18.1202 157.975 18.1202C158.486 18.1202 158.991 18.2328 159.459 18.4509C159.927 18.6691 160.349 18.9882 160.697 19.3884C161.046 19.7885 161.314 20.2613 161.485 20.7772C161.655 21.2931 161.726 21.8412 161.691 22.3875C161.726 22.9337 161.655 23.4818 161.485 23.9977C161.314 24.5136 161.046 24.9864 160.697 25.3865C160.349 25.7867 159.927 26.1058 159.459 26.324C158.991 26.5421 158.486 26.6547 157.975 26.6547C157.465 26.6547 156.96 26.5421 156.491 26.324C156.023 26.1058 155.602 25.7867 155.253 25.3865C154.905 24.9864 154.637 24.5136 154.466 23.9977C154.295 23.4818 154.225 22.9337 154.26 22.3875ZM160.082 22.3875C160.082 20.5687 159.313 19.5 157.984 19.5C156.62 19.5 155.868 20.5687 155.868 22.3875C155.868 24.2437 156.62 25.2937 157.967 25.2937C159.313 25.2937 160.082 24.225 160.082 22.3875ZM163.771 18.1875H165.257V19.5187H165.38C165.782 18.525 166.726 17.925 167.74 18.0187C168.121 17.989 168.504 18.0516 168.86 18.2018C169.216 18.3521 169.536 18.5861 169.796 18.8867C170.056 19.1873 170.25 19.5468 170.363 19.9385C170.476 20.3302 170.506 20.7443 170.45 21.15V26.625H168.911V21.5625C168.911 20.2125 168.352 19.5375 167.198 19.5375C166.939 19.525 166.68 19.5729 166.439 19.6778C166.199 19.7826 165.982 19.9421 165.805 20.1451C165.627 20.3481 165.492 20.59 165.41 20.854C165.327 21.1181 165.299 21.3981 165.327 21.675V26.625H163.754V18.1875H163.771ZM179.244 16.0687V18.225H180.94V19.6125H179.244V23.9625C179.244 24.8437 179.577 25.2375 180.346 25.2375L180.94 25.2V26.5875C180.661 26.6437 180.381 26.6625 180.101 26.6625C178.353 26.6625 177.688 26.0062 177.688 24.3937V19.6125H176.429V18.225H177.688V16.0687H179.244ZM183.056 14.8875H184.612V19.5375H184.734C185.154 18.5437 186.116 17.925 187.13 18.0375C187.509 18.0147 187.889 18.082 188.242 18.2346C188.595 18.3872 188.912 18.6214 189.171 18.9203C189.429 19.2193 189.623 19.5758 189.739 19.9644C189.855 20.3531 189.889 20.7642 189.84 21.1687V26.6062H188.284V21.5812C188.284 20.2312 187.689 19.5562 186.605 19.5562C186.337 19.5303 186.067 19.5678 185.815 19.6661C185.562 19.7644 185.332 19.921 185.142 20.1249C184.952 20.3288 184.806 20.575 184.714 20.8461C184.623 21.1172 184.588 21.4065 184.612 21.6937V26.625H183.056V14.8875ZM198.896 24.3375C198.684 25.1073 198.226 25.7729 197.603 26.2183C196.98 26.6637 196.231 26.8606 195.487 26.775C194.969 26.7879 194.455 26.6805 193.98 26.4601C193.505 26.2397 193.08 25.9115 192.734 25.4981C192.389 25.0848 192.131 24.596 191.978 24.0655C191.826 23.535 191.782 22.9753 191.85 22.425C191.783 21.872 191.827 21.3099 191.979 20.7766C192.131 20.2434 192.388 19.7513 192.733 19.3337C193.078 18.9161 193.502 18.5826 193.977 18.3558C194.452 18.1289 194.967 18.014 195.487 18.0187C197.672 18.0187 198.984 19.6125 198.984 22.275V22.8375H193.441V22.95C193.417 23.2599 193.453 23.5719 193.548 23.866C193.643 24.16 193.794 24.4296 193.991 24.6573C194.189 24.8851 194.428 25.066 194.695 25.1885C194.962 25.3111 195.249 25.3724 195.539 25.3687C196.291 25.4625 197.025 25.05 197.41 24.3375H198.896ZM193.441 21.6187H197.41C197.43 21.3364 197.394 21.0528 197.306 20.786C197.218 20.5192 197.079 20.2749 196.898 20.0686C196.717 19.8624 196.498 19.6987 196.255 19.5879C196.013 19.4771 195.751 19.4216 195.487 19.425C195.217 19.4199 194.949 19.4731 194.699 19.5816C194.448 19.69 194.221 19.8514 194.03 20.0562C193.839 20.2609 193.688 20.5048 193.587 20.7732C193.486 21.0417 193.437 21.3292 193.441 21.6187Z" fill="white"/>
</svg>
